<?xml version="1.0" encoding="utf-8"?>
<!-- Generator: Adobe Illustrator 16.0.0, SVG Export Plug-In . SVG Version: 6.00 Build 0)  -->
<!DOCTYPE svg PUBLIC "-//W3C//DTD SVG 1.1//EN" "http://www.w3.org/Graphics/SVG/1.1/DTD/svg11.dtd">
<svg version="1.1" id="Layer_3" xmlns="http://www.w3.org/2000/svg" xmlns:xlink="http://www.w3.org/1999/xlink" x="0px" y="0px"
	 width="100px" height="100px" viewBox="0 0 100 100" enable-background="new 0 0 100 100" xml:space="preserve">
<g>
	<path d="M40.462,39.854c0-4.611-3.137-4.611-3.137-4.611h-1.661H24.419v9.894h12.106C38.617,45.136,40.462,44.467,40.462,39.854z"
		/>
	<path d="M37.326,51.971H24.419v11.85H36.73C38.582,63.768,42,63.188,42,58.06C42,51.909,37.326,51.971,37.326,51.971z"/>
	<path d="M70.368,45.136c-6.849,0-7.803,6.835-7.803,6.835H77.13C77.13,51.971,77.217,45.136,70.368,45.136z"/>
	<path d="M50,1.125C23.007,1.125,1.125,23.008,1.125,50S23.007,98.875,50,98.875S98.875,76.992,98.875,50S76.993,1.125,50,1.125z
		 M60.656,29.973H78.95v5.46H60.656V29.973z M51.41,58.612c0,13.532-14.084,13.087-14.084,13.087H24.419h-0.379h-9.787V27.361h9.787
		h0.379h12.906c7.012,0,12.547,3.871,12.547,11.805c0,7.935-6.766,8.438-6.766,8.438C52.025,47.604,51.41,58.612,51.41,58.612z
		 M70.455,65.604c7.37,0,7.109-4.77,7.109-4.77h7.803c0,12.659-15.171,11.792-15.171,11.792c-18.207,0-17.037-16.95-17.037-16.95
		s-0.015-17.034,17.035-17.034c17.947,0,15.433,19.245,15.433,19.245H62.652C62.652,66.126,70.455,65.604,70.455,65.604z"/>
</g>
</svg>
