<?xml version="1.0" encoding="utf-8"?>
<!-- Generator: Adobe Illustrator 16.0.4, SVG Export Plug-In . SVG Version: 6.00 Build 0)  -->
<!DOCTYPE svg PUBLIC "-//W3C//DTD SVG 1.1//EN" "http://www.w3.org/Graphics/SVG/1.1/DTD/svg11.dtd">
<svg version="1.1" id="Capa_1" xmlns="http://www.w3.org/2000/svg" xmlns:xlink="http://www.w3.org/1999/xlink" x="0px" y="0px"
	 width="16px" height="16px" viewBox="0 0 16 16" enable-background="new 0 0 16 16" xml:space="preserve">
<g>
	<path d="M8,0C3.582,0,0,3.582,0,8s3.582,8,8,8s8-3.582,8-8C16,3.581,12.418,0,8,0z M8,13.986c-3.301,0-5.987-2.686-5.987-5.986
		S4.699,2.013,8,2.013S13.986,4.699,13.986,8S11.301,13.986,8,13.986z"/>
	<path d="M9.863,8.602c0.67,1.838,0.941,3.334,0.994,3.646c1.146-0.776,1.963-2.005,2.191-3.429
		C12.875,8.764,11.467,8.344,9.863,8.602z"/>
	<path d="M8.873,8.85c-2.884,1.004-3.92,3.006-4.012,3.193C5.728,12.719,6.818,13.122,8,13.122c0.709,0.001,1.385-0.144,1.998-0.406
		c-0.076-0.448-0.373-2.013-1.091-3.878L8.873,8.85z"/>
	<path d="M9.441,7.531l0.109,0.264c1.702-0.214,3.393,0.129,3.561,0.165c-0.01-1.207-0.441-2.316-1.153-3.186
		c-0.106,0.145-0.964,1.244-2.856,2.016C9.221,7.034,9.335,7.282,9.441,7.531z"/>
	<path d="M8.357,8.052l0.202-0.06C8.43,7.701,8.29,7.41,8.144,7.124C5.59,7.888,3.111,7.856,2.887,7.851L2.885,8.007
		C2.886,9.32,3.383,10.52,4.2,11.427C4.316,11.229,5.719,8.904,8.357,8.052z"/>
	<path d="M7.722,6.337C6.874,4.83,5.961,3.564,5.826,3.379C4.395,4.054,3.325,5.373,2.994,6.96C3.223,6.963,5.33,6.972,7.722,6.337z
		"/>
	<path d="M11.391,4.182C10.486,3.381,9.3,2.893,8,2.893c-0.412,0-0.814,0.049-1.198,0.142c0.141,0.19,1.07,1.455,1.908,2.994
		C10.529,5.348,11.298,4.313,11.391,4.182z"/>
</g>
</svg>
