<?xml version="1.0" encoding="utf-8"?>
<!-- Generator: Adobe Illustrator 16.0.0, SVG Export Plug-In . SVG Version: 6.00 Build 0)  -->
<!DOCTYPE svg PUBLIC "-//W3C//DTD SVG 1.1//EN" "http://www.w3.org/Graphics/SVG/1.1/DTD/svg11.dtd">
<svg version="1.1" id="Layer_1" xmlns="http://www.w3.org/2000/svg" xmlns:xlink="http://www.w3.org/1999/xlink" x="0px" y="0px"
	 width="50px" height="50px" viewBox="0 0 50 50" enable-background="new 0 0 50 50" xml:space="preserve">
<path d="M50,0v50c0,0-16.986-0.051-17.236-0.005c-0.957,0.176-1.572-0.332-1.578-1.34c-0.012-1.869-0.012-3.736,0.02-5.604
	c0.029-2.15-0.02-4.271-1.607-6.045c0.944-0.175,1.786-0.297,2.609-0.49c5.457-1.289,8.292-4.828,8.652-10.699
	c0.185-2.989-0.336-5.732-2.269-8.086c-0.138-0.166-0.146-0.542-0.079-0.783c0.516-1.946,0.363-3.848-0.234-5.75
	c-0.146-0.475-0.396-0.622-0.85-0.591c-1.602,0.091-3.068,0.669-4.363,1.559c-1.248,0.861-2.41,1.048-3.893,0.7
	c-3.264-0.757-6.549-0.536-9.806,0.24c-0.368,0.09-0.864-0.031-1.202-0.234c-1.528-0.921-3.057-1.816-4.821-2.173
	c-1.364-0.273-1.482-0.204-1.844,1.152c-0.455,1.708-0.5,3.417-0.036,5.137c0.066,0.25-0.002,0.651-0.165,0.835
	c-3.613,4.144-2.304,11.975,0.13,14.974c1.893,2.33,4.408,3.378,7.2,3.923c0.487,0.096,0.972,0.166,1.46,0.254
	c-0.418,1.116-0.794,2.172-1.22,3.211c-0.083,0.2-0.347,0.367-0.563,0.457c-2.738,1.092-5.093,0.289-6.659-2.269
	c-0.838-1.362-1.914-2.379-3.515-2.677c-0.051-0.01-0.104-0.035-0.15-0.028c-0.431,0.115-0.858,0.237-1.288,0.356
	c0.242,0.347,0.413,0.811,0.736,1.018c1.358,0.886,2.241,2.145,2.825,3.629c0.917,2.33,2.697,3.37,5.01,3.571
	c1.128,0.097,2.269,0.015,3.505,0.015c0,1.447,0.051,3.1-0.021,4.743c-0.037,0.886-1.94,0.877-1.94,0.877L9.3,50H0V0 M20.105,36.911
	c-0.008,0.021-0.014,0.036-0.022,0.055c0.025,0.007,0.05,0.009,0.077,0.015C20.18,36.982,20.197,37.018,20.105,36.911z
	 M13.676,41.532c0.222,0.142,0.434,0.319,0.674,0.397c0.087,0.026,0.25-0.178,0.537-0.396c-0.398-0.155-0.633-0.292-0.88-0.326
	C13.911,41.195,13.787,41.419,13.676,41.532z M15.701,41.891c0.033,0.152,0.328,0.344,0.501,0.34c0.168-0.002,0.332-0.231,0.5-0.361
	c-0.152-0.145-0.306-0.284-0.774-0.719C15.827,41.45,15.658,41.693,15.701,41.891z M18.185,41.273
	c-0.209,0.053-0.386,0.25-0.576,0.387c0.111,0.145,0.223,0.279,0.402,0.508c0.248-0.232,0.416-0.395,0.585-0.551
	C18.455,41.492,18.29,41.249,18.185,41.273z M12.028,40.411c0.116,0.228,0.295,0.421,0.538,0.737
	c0.163-0.271,0.34-0.481,0.309-0.521c-0.154-0.21-0.364-0.379-0.57-0.533C12.29,40.083,12.003,40.363,12.028,40.411z"/>
</svg>
