<?xml version="1.0" encoding="utf-8"?>
<!-- Generator: Adobe Illustrator 16.0.0, SVG Export Plug-In . SVG Version: 6.00 Build 0)  -->
<!DOCTYPE svg PUBLIC "-//W3C//DTD SVG 1.1//EN" "http://www.w3.org/Graphics/SVG/1.1/DTD/svg11.dtd">
<svg version="1.1" id="Layer_3" xmlns="http://www.w3.org/2000/svg" xmlns:xlink="http://www.w3.org/1999/xlink" x="0px" y="0px"
	 width="100px" height="100px" viewBox="0 0 100 100" enable-background="new 0 0 100 100" xml:space="preserve">
<g>
	<ellipse cx="50.069" cy="49.844" rx="14.465" ry="14.017"/>
	<path d="M72.458,50.626c0,11.981-10.024,21.692-22.389,21.692S27.68,62.607,27.68,50.626c0-2.147,0.324-4.221,0.924-6.18h-6.616
		v30.427c0,1.576,1.288,2.863,2.863,2.863H75.01c1.576,0,2.865-1.287,2.865-2.863V44.446h-6.341
		C72.133,46.405,72.458,48.479,72.458,50.626z"/>
	<path d="M66.457,36.235h8.141c1.784,0,3.242-1.458,3.242-3.242v-7.762c0-1.785-1.458-3.243-3.242-3.243h-8.141
		c-1.785,0-3.243,1.458-3.243,3.243v7.762C63.213,34.776,64.672,36.235,66.457,36.235z"/>
	<path d="M0,0v100h100V0H0z M76.77,86.016H23.231c-5.087,0-9.246-3.765-9.246-9.244V23.23c0-5.481,4.159-9.245,9.246-9.245H76.77
		c5.086,0,9.246,3.764,9.246,9.245v53.542C86.016,82.251,81.855,86.016,76.77,86.016z"/>
</g>
</svg>
