<?xml version="1.0" encoding="utf-8"?>
<!-- Generator: Adobe Illustrator 16.0.4, SVG Export Plug-In . SVG Version: 6.00 Build 0)  -->
<!DOCTYPE svg PUBLIC "-//W3C//DTD SVG 1.1//EN" "http://www.w3.org/Graphics/SVG/1.1/DTD/svg11.dtd">
<svg version="1.1" id="Capa_1" xmlns="http://www.w3.org/2000/svg" xmlns:xlink="http://www.w3.org/1999/xlink" x="0px" y="0px"
	 width="16px" height="16px" viewBox="0 0 16 16" enable-background="new 0 0 16 16" xml:space="preserve">
<path d="M8,0C3.582,0,0,3.582,0,8s3.582,8,8,8s8-3.582,8-8C16,3.581,12.418,0,8,0z M10.999,7.4H8.6v2.196
	c0,0.557-0.008,0.877,0.051,1.035c0.06,0.157,0.205,0.32,0.365,0.414c0.213,0.128,0.455,0.191,0.729,0.191
	c0.486,0,0.773-0.064,1.254-0.381V12.3c-0.41,0.193-0.768,0.306-1.1,0.384C9.566,12.761,9.207,12.8,8.82,12.8
	c-0.439,0-0.698-0.055-1.035-0.166c-0.337-0.11-0.625-0.27-0.863-0.474c-0.239-0.205-0.403-0.424-0.496-0.655
	c-0.092-0.231-0.138-0.565-0.138-1.005V7.134H5.001v-1.36C5.378,5.652,5.8,5.476,6.068,5.247c0.269-0.229,0.485-0.503,0.648-0.824
	C6.878,4.104,6.99,3.695,7.052,3.2H8.6v2.4h2.399V7.4z"/>
</svg>
