<?xml version="1.0" encoding="utf-8"?>
<!-- Generator: Adobe Illustrator 16.0.4, SVG Export Plug-In . SVG Version: 6.00 Build 0)  -->
<!DOCTYPE svg PUBLIC "-//W3C//DTD SVG 1.1//EN" "http://www.w3.org/Graphics/SVG/1.1/DTD/svg11.dtd">
<svg version="1.1" id="Capa_1" xmlns="http://www.w3.org/2000/svg" xmlns:xlink="http://www.w3.org/1999/xlink" x="0px" y="0px"
	 width="16px" height="16px" viewBox="0 0 16 16" enable-background="new 0 0 16 16" xml:space="preserve">
<path d="M8,0C3.582,0,0,3.582,0,8s3.582,8,8,8s8-3.582,8-8C16,3.581,12.418,0,8,0z M5.056,10.004c-1.121,0-2.029-0.908-2.029-2.029
	c0-1.121,0.908-2.029,2.029-2.029c1.121,0,2.029,0.908,2.029,2.029C7.085,9.096,6.177,10.004,5.056,10.004z M10.965,10.004
	c-1.121,0-2.029-0.908-2.029-2.029c0-1.121,0.908-2.029,2.029-2.029s2.029,0.908,2.029,2.029
	C12.994,9.096,12.086,10.004,10.965,10.004z"/>
</svg>
