<?xml version="1.0" encoding="utf-8"?>
<!-- Generator: Adobe Illustrator 16.0.0, SVG Export Plug-In . SVG Version: 6.00 Build 0)  -->
<!DOCTYPE svg PUBLIC "-//W3C//DTD SVG 1.1//EN" "http://www.w3.org/Graphics/SVG/1.1/DTD/svg11.dtd">
<svg version="1.1" id="Layer_1" xmlns="http://www.w3.org/2000/svg" xmlns:xlink="http://www.w3.org/1999/xlink" x="0px" y="0px"
	 width="50px" height="50px" viewBox="0 0 50 50" enable-background="new 0 0 50 50" xml:space="preserve">
<path d="M33.501,49.751c-0.243,0.091-0.487,0.198-0.738,0.244c-0.957,0.176-1.571-0.332-1.577-1.34
	c-0.012-1.869-0.012-3.736,0.018-5.604c0.03-2.151-0.018-4.272-1.609-6.045c0.946-0.175,1.788-0.297,2.611-0.491
	c5.457-1.288,8.292-4.827,8.653-10.699c0.184-2.99-0.335-5.733-2.268-8.087c-0.138-0.166-0.145-0.542-0.08-0.783
	c0.517-1.946,0.364-3.848-0.234-5.75c-0.147-0.475-0.395-0.622-0.849-0.591c-1.602,0.091-3.069,0.669-4.364,1.559
	c-1.247,0.861-2.409,1.048-3.892,0.7c-3.264-0.757-6.549-0.536-9.806,0.24c-0.368,0.09-0.864-0.031-1.202-0.234
	c-1.528-0.921-3.057-1.816-4.821-2.173c-1.364-0.273-1.482-0.204-1.844,1.152c-0.455,1.708-0.5,3.417-0.036,5.137
	c0.066,0.25-0.002,0.651-0.165,0.835c-3.613,4.144-2.304,11.975,0.13,14.974c1.893,2.33,4.408,3.378,7.2,3.923
	c0.487,0.095,0.972,0.166,1.46,0.253c-0.418,1.117-0.794,2.172-1.22,3.21c-0.083,0.202-0.347,0.369-0.563,0.457
	c-2.738,1.092-5.093,0.29-6.659-2.267c-0.838-1.362-1.914-2.379-3.515-2.675c-0.051-0.01-0.104-0.037-0.15-0.03
	c-0.431,0.115-0.858,0.238-1.288,0.357c0.242,0.346,0.413,0.81,0.736,1.017c1.358,0.886,2.241,2.143,2.825,3.629
	c0.917,2.33,2.697,3.37,5.01,3.571c1.128,0.097,2.269,0.015,3.505,0.015c0,1.447,0.051,3.098-0.021,4.743
	c-0.037,0.886-0.902,1.24-1.94,0.877c-2.751-0.968-5.302-2.354-7.504-4.304C1.351,38.525-1.715,29.62,0.929,19.198
	c2.635-10.387,9.504-16.76,19.773-18.76c14.209-2.762,27.671,7.875,29.081,22.704C50.894,34.832,44.203,45.771,33.501,49.751z
	 M20.105,36.911c-0.008,0.021-0.014,0.036-0.022,0.055c0.025,0.006,0.05,0.009,0.077,0.014
	C20.18,36.982,20.197,37.017,20.105,36.911z M13.676,41.532c0.222,0.142,0.434,0.32,0.674,0.397c0.087,0.028,0.25-0.176,0.537-0.395
	c-0.398-0.155-0.633-0.292-0.88-0.326C13.911,41.195,13.787,41.419,13.676,41.532z M15.701,41.89
	c0.033,0.153,0.328,0.344,0.501,0.341c0.168-0.003,0.332-0.233,0.5-0.363c-0.152-0.143-0.306-0.284-0.774-0.718
	C15.827,41.45,15.658,41.694,15.701,41.89z M18.185,41.273c-0.209,0.053-0.386,0.251-0.576,0.387
	c0.111,0.145,0.223,0.28,0.402,0.508c0.248-0.232,0.416-0.395,0.585-0.551C18.455,41.492,18.29,41.249,18.185,41.273z
	 M12.028,40.411c0.116,0.228,0.295,0.421,0.538,0.738c0.163-0.271,0.34-0.482,0.309-0.522c-0.154-0.21-0.364-0.379-0.57-0.533
	C12.29,40.083,12.003,40.363,12.028,40.411z"/>
</svg>
