<?xml version="1.0" encoding="utf-8"?>
<!-- Generator: Adobe Illustrator 16.0.0, SVG Export Plug-In . SVG Version: 6.00 Build 0)  -->
<!DOCTYPE svg PUBLIC "-//W3C//DTD SVG 1.1//EN" "http://www.w3.org/Graphics/SVG/1.1/DTD/svg11.dtd">
<svg version="1.1" id="Layer_3" xmlns="http://www.w3.org/2000/svg" xmlns:xlink="http://www.w3.org/1999/xlink" x="0px" y="0px"
	 width="100px" height="100px" viewBox="0 0 100 100" enable-background="new 0 0 100 100" xml:space="preserve">
<g>
	<path d="M51.854,34.795c0-6.775-4.039-17.311-11.826-17.311c-2.448,0-5.071,1.222-6.577,3.105
		c-1.598,1.979-2.062,4.511-2.062,6.965c0,6.3,3.658,16.741,11.736,16.741c2.345,0,4.872-1.123,6.382-2.63
		C51.666,39.494,51.854,36.49,51.854,34.795z"/>
	<path d="M46.782,59.539c-0.748-0.094-1.218-0.094-2.156-0.094c-0.847,0-5.918,0.185-9.859,1.511
		c-2.064,0.748-8.071,3.008-8.071,9.687c0,6.681,6.478,11.485,16.522,11.485c9.014,0,13.803-4.338,13.803-10.163
		C57.021,67.153,53.923,64.621,46.782,59.539z"/>
	<path d="M50,1.125C23.007,1.125,1.125,23.007,1.125,50S23.007,98.875,50,98.875S98.875,76.993,98.875,50S76.993,1.125,50,1.125z
		 M38.614,86.07c-13.616,0-20.184-6.488-20.184-13.455c0-3.385,1.687-8.18,7.227-11.475c5.818-3.575,13.709-4.043,17.936-4.334
		c-1.319-1.692-2.816-3.479-2.816-6.394c0-1.597,0.47-2.539,0.934-3.669c-1.034,0.096-2.062,0.188-3.002,0.188
		c-9.948,0-15.581-7.438-15.581-14.775c0-4.322,1.969-9.124,6.005-12.605c5.354-4.422,12.67-5.622,17.744-5.622h18.498l-6.105,3.836
		h-5.817c2.158,1.786,6.659,5.549,6.659,12.703c0,6.957-3.938,10.259-7.879,13.36c-1.223,1.221-2.633,2.538-2.633,4.611
		c0,2.065,1.41,3.193,2.44,4.047l3.383,2.628c4.132,3.48,7.887,6.679,7.886,13.177C63.308,77.137,54.76,86.07,38.614,86.07z
		 M79.13,48.85v9.465h-4.645V48.85h-9.393v-4.697h9.393v-9.406h4.645v9.406h9.439v4.697H79.13z"/>
</g>
</svg>
