<?xml version="1.0" encoding="utf-8"?>
<!-- Generator: Adobe Illustrator 16.0.0, SVG Export Plug-In . SVG Version: 6.00 Build 0)  -->
<!DOCTYPE svg PUBLIC "-//W3C//DTD SVG 1.1//EN" "http://www.w3.org/Graphics/SVG/1.1/DTD/svg11.dtd">
<svg version="1.1" id="Layer_6" xmlns="http://www.w3.org/2000/svg" xmlns:xlink="http://www.w3.org/1999/xlink" x="0px" y="0px"
	 width="100px" height="100px" viewBox="0 0 100 100" enable-background="new 0 0 100 100" xml:space="preserve">
<path fill-rule="evenodd" clip-rule="evenodd" d="M50,1.125C23.007,1.125,1.125,23.007,1.125,50S23.007,98.875,50,98.875
	S98.875,76.993,98.875,50S76.993,1.125,50,1.125z M80.801,57.826c-0.984,0.248-1.981,0.454-2.991,0.624
	c-1.716,0.289-3.444,0.489-5.18,0.497c-0.771,0.003-1.108,0.298-1.435,0.94c-4.186,8.229-9.713,15.44-16.559,21.636
	c-0.643,0.582-1.328,1.123-2.037,1.62c-2.487,1.737-5.018,1.847-7.604,0.181c-2.209-1.422-4.126-3.174-5.878-5.116
	c-5.384-5.966-9.099-12.924-12.046-20.335c-4.01-10.084-6.277-20.602-7.777-31.312l-0.097-0.676l11.863,0.007l0.1,1.192
	c0.425,3.446,0.981,6.858,1.659,10.262c2.48,12.439,6.858,24.055,14.81,34.121c1.579,1.998,1.565,2.016,3.247,0.162
	c3.9-4.303,7.124-9.074,9.822-14.21c0.323-0.613,0.314-0.917-0.349-1.301c-6.64-3.852-10.108-9.843-11.433-17.217
	c-0.792-4.411-0.713-8.792,0.844-13.063c2.712-7.441,9.178-11.032,16.971-10.242c8.712,0.883,12.331,6.829,13.032,13.657
	c0.491,4.785-0.188,9.397-1.833,13.898c-0.122,0.331-0.43,1.095-0.43,1.095s-0.668,0.063-1.146,0.101
	c-3.059,0.245-5.869-0.276-8.146-2.566c-0.326-0.329-0.778-0.842-0.778-0.842s0.178-0.709,0.273-1.045
	c0.94-3.292,1.475-6.638,0.691-10.052c-0.609-2.661-2.144-4.02-4.352-3.942c-1.547,0.055-2.604,0.883-3.374,2.148
	c-0.827,1.359-1.112,2.876-1.207,4.433c-0.235,3.889,0.339,7.642,2.433,10.98c3.5,5.581,8.81,7.413,15.102,6.825
	c1.313-0.124,2.58-0.347,3.803-0.67V57.826z"/>
</svg>
